<?xml version="1.0" encoding="UTF-8" standalone="no"?>

<!-- Created with PainterSVG V3.34 -->

<svg  xmlns="http://www.w3.org/2000/svg" id="null"  width="45" height="45" viewBox="0 0 559.369 793.6992">
<defs></defs>
<path id="path1" d=" M 66.3377,257.5138 Q 18.4583,582.0938 307.3153,549.3409" style="fill:none;stroke:#0;stroke-width:2;stroke-opacity:1;stroke-linecap:butt;stroke-miterlimit:4;stroke-dashoffset:0;"/>
<path id="path2" d=" M 39.5909,241.3047 Q 284.0771,307.5427 308.8156,564.5479 235.8196,357.5953 39.5909,241.3047 Z" style="fill:#0;fill-opacity:1;stroke:#0;stroke-width:2;stroke-opacity:1;stroke-linecap:butt;stroke-miterlimit:4;stroke-dashoffset:0;"/>
<path id="path3" d=" M 40.9694,208.8468 C 26.3421,208.8468 14.3744,220.8146 14.3744,235.4419 14.3744,250.0691 26.3421,262.0369 40.9694,262.0369 55.5966,262.0369 67.5644,250.0691 67.5644,235.4419 67.5644,220.8146 55.5966,208.8468 40.9694,208.8468 Z" style="fill:#0;fill-opacity:1;stroke:#0;stroke-width:1;stroke-opacity:1;stroke-linecap:butt;stroke-miterlimit:4;stroke-dashoffset:0;"/>
<path id="path4" d=" M 324.7709,547.0724 C 307.2113,547.0724 292.8444,561.4393 292.8444,578.999 292.8444,596.5586 307.2113,610.9255 324.7709,610.9255 342.3306,610.9255 356.6975,596.5586 356.6975,578.999 356.6975,561.4393 342.3306,547.0724 324.7709,547.0724 Z" style="fill:#0;fill-opacity:1;stroke:#0;stroke-width:1;stroke-opacity:1;stroke-linecap:butt;stroke-miterlimit:4;stroke-dashoffset:0;"/>
<path id="path5" d=" M 94.1518,478.1793 391.8022,213.8841" style="fill:none;stroke:#0;stroke-width:1;stroke-opacity:1;stroke-linecap:butt;stroke-miterlimit:4;stroke-dashoffset:0;"/>
<path id="path9" d=" M 406.8305,198.9601 398.203,222.7314 381.9302,203.3741 406.8305,198.9601 Z" style="fill:#0;fill-opacity:1;stroke:#0;stroke-width:1;stroke-opacity:1;stroke-linecap:butt;stroke-miterlimit:4;stroke-dashoffset:0;"/>
</svg>
