<?xml version="1.0" encoding="UTF-8" standalone="no"?>

<!-- Created with PainterSVG V3.34 -->

<svg  xmlns="http://www.w3.org/2000/svg" id="null"  width="45" height="45" viewBox="0 0 559.369 793.6992">
<defs></defs>
<path id="path1" d=" M 48.3444,260.7744 172.0329,260.7744 172.0329,559.404 48.3444,559.404 48.3444,260.7744 Z" style="fill:#0;fill-opacity:1;stroke:#0;stroke-width:1;stroke-opacity:1;stroke-linecap:butt;stroke-miterlimit:4;stroke-dashoffset:0;"/>
<path id="path2" d=" M 409.3995,257.6364 531.7433,257.6364 531.7433,556.7906 409.3995,556.7906 409.3995,257.6364 Z" style="fill:#0;fill-opacity:1;stroke:#0;stroke-width:1;stroke-opacity:1;stroke-linecap:butt;stroke-miterlimit:4;stroke-dashoffset:0;"/>
<path id="path4" d=" M 127.6674,339.7044 443.6715,339.7044 443.6715,543.3154 127.6674,543.3154 127.6674,339.7044 Z" style="fill:#0;fill-opacity:1;stroke:#0;stroke-width:1;stroke-opacity:1;stroke-linecap:butt;stroke-miterlimit:4;stroke-dashoffset:0;"/>
<path id="path5" d=" M 111.4667,109.1878 200.6267,263.6173 22.3068,263.6173 111.4667,109.1878 Z" style="fill:#0;fill-opacity:1;stroke:#0;stroke-width:1;stroke-opacity:1;stroke-linecap:butt;stroke-miterlimit:4;stroke-dashoffset:0;"/>
<path id="path6" d=" M 464.713,111.7625 553.042,264.7528 376.384,264.7528 464.713,111.7625 Z" style="fill:#0;fill-opacity:1;stroke:#0;stroke-width:1;stroke-opacity:1;stroke-linecap:butt;stroke-miterlimit:4;stroke-dashoffset:0;"/>
<path id="path7" d=" M 220.5659,538.7521 C 238.9196,436.5474 238.9196,399.8175 293.6932,403.522 363.4061,403.0114 339.6993,498.183 359.4162,538.7521 L 220.5659,538.7521 Z" style="fill:#d0d0d0;fill-opacity:1;stroke:#0;stroke-width:2;stroke-opacity:1;stroke-linecap:butt;stroke-miterlimit:4;stroke-dashoffset:0;"/>
</svg>
