<?xml version="1.0" encoding="UTF-8" standalone="no"?>

<!-- Created with PainterSVG V3.34 -->

<svg  xmlns="http://www.w3.org/2000/svg" id="null"  width="559.369" height="793.6992" viewBox="0 0 559.369 793.6992">
<defs></defs>
<path id="path1" d=" M 97.5901,511.3766 443.0833,511.3766 443.0833,573.7166 97.5901,573.7166 97.5901,511.3766 Z" style="fill:#0;fill-opacity:1;stroke:#0;stroke-width:1;stroke-opacity:1;stroke-linecap:butt;stroke-miterlimit:4;stroke-dashoffset:0;"/>
<path id="path2" d=" M 78.192,525.5106 C 45.0525,525.5106 17.9383,552.6248 17.9383,585.7643 17.9383,618.9038 45.0525,646.0179 78.192,646.0179 111.3315,646.0179 138.4456,618.9038 138.4456,585.7643 138.4456,552.6248 111.3315,525.5106 78.192,525.5106 Z" style="fill:#0;fill-opacity:1;stroke:#0;stroke-width:1;stroke-opacity:1;stroke-linecap:butt;stroke-miterlimit:4;stroke-dashoffset:0;"/>
<path id="path3" d=" M 461.3054,522.4048 C 426.8555,522.4048 398.6692,550.5911 398.6692,585.041 398.6692,619.4909 426.8555,647.6772 461.3054,647.6772 495.7553,647.6772 523.9416,619.4909 523.9416,585.041 523.9416,550.5911 495.7553,522.4048 461.3054,522.4048 Z" style="fill:#0;fill-opacity:1;stroke:#0;stroke-width:1;stroke-opacity:1;stroke-linecap:butt;stroke-miterlimit:4;stroke-dashoffset:0;"/>
<path id="path4" d=" M 115.5296,198.3574 410.9089,497.6996 382.491,525.7411 87.1118,226.399 115.5296,198.3574 Z" style="fill:#0;fill-opacity:1;stroke:#0;stroke-width:1;stroke-opacity:1;stroke-linecap:butt;stroke-miterlimit:4;stroke-dashoffset:0;"/>
<path id="path5" d=" M 22.8257,80.1105 159.3368,243.7705 Q -67.1177,283.478 22.8257,80.1105 Z" style="fill:#0;fill-opacity:1;stroke:#0;stroke-width:2;stroke-opacity:1;stroke-linecap:butt;stroke-miterlimit:4;stroke-dashoffset:0;"/>
</svg>
