<?xml version="1.0" encoding="UTF-8" standalone="no"?>

<!-- Created with PainterSVG V3.34 -->

<svg  xmlns="http://www.w3.org/2000/svg" id="null"  width="45" height="45" viewBox="0 0 559.369 793.6992">
<defs></defs>
<path id="path1" d=" M 232.0849,290.6744 C 254.9068,283.2592 267.5122,258.5197 260.097,235.6978 252.6818,212.8759 227.9423,200.2705 205.1204,207.6857 182.2985,215.101 169.6932,239.8404 177.1084,262.6623 184.5236,285.4841 209.263,298.0896 232.0849,290.6744 Z" style="fill:#0;fill-opacity:1;stroke:#0;stroke-width:1;stroke-opacity:1;stroke-linecap:butt;stroke-miterlimit:4;stroke-dashoffset:0;"/>
<path id="path3" d=" M 192.3046,296.5867 Q 292.0534,304.5714 387.8122,361.2632 C 426.9139,403.9816 362.1967,392.5235 361.4785,413.9625 L 240.184,362.0617 Q 218.2393,425.9396 219.4362,482.6313 264.1237,496.6047 312.8011,540.1215 L 305.6192,653.505 251.3559,652.7065 257.7398,568.8666 Q 196.2945,527.3459 122.8794,520.1597 122.8794,452.6886 122.8794,385.2174 C 132.4553,325.3318 161.7016,316.4688 192.3046,296.5867 Z" style="fill:#0;fill-opacity:1;stroke:#0;stroke-width:2;stroke-opacity:1;stroke-linecap:butt;stroke-miterlimit:4;stroke-dashoffset:0;"/>
<path id="path4" d=" M 31.9085,480.236 Q 107.7176,538.5246 225.8202,560.0834 C 244.972,598.4102 249.4407,626.2769 248.9619,651.908 L 24.7266,646.3187 31.9085,480.236 Z" style="fill:#a05000;fill-opacity:1;stroke:#0;stroke-width:2;stroke-opacity:1;stroke-linecap:butt;stroke-miterlimit:4;stroke-dashoffset:0;"/>
<path id="path5" d=" M 321.1216,651.254 419.7318,648.7141 C 413.8609,586.8278 407.1721,523.6635 462.0253,477.8404 Q 411.7707,451.7147 379.4333,408.7724 L 286.7729,495.2186 Q 317.295,518.9268 327.2588,557.9841 C 332.7787,596.0734 322.3186,618.1971 321.1216,651.254 Z" style="fill:#a05000;fill-opacity:1;stroke:#0;stroke-width:2;stroke-opacity:1;stroke-linecap:butt;stroke-miterlimit:4;stroke-dashoffset:0;"/>
<path id="path6" d=" M 378.3516,405.238 C 399.9761,376.2238 408.9699,381.83 422.0921,371.7979 Q 479.5937,398.845 521.3683,452.9392 C 523.3342,480.9698 514.8318,483.527 510.5561,496.2145 Q 433.8873,478.5109 378.3516,405.238 Z" style="fill:#a05000;fill-opacity:1;stroke:#0;stroke-width:2;stroke-opacity:1;stroke-linecap:butt;stroke-miterlimit:4;stroke-dashoffset:0;"/>
<path id="path7" d=" M 328.5142,347.969 C 320.9265,347.969 314.7184,354.1771 314.7184,361.7648 314.7184,369.3525 320.9265,375.5606 328.5142,375.5606 336.1019,375.5606 342.31,369.3525 342.31,361.7648 342.31,354.1771 336.1019,347.969 328.5142,347.969 Z" style="fill:#0;fill-opacity:1;stroke:#0;stroke-width:1;stroke-opacity:1;stroke-linecap:butt;stroke-miterlimit:4;stroke-dashoffset:0;"/>
<path id="path8" d=" M 439.0308,402.1459 C 436.4397,402.1459 434.3198,404.2659 434.3198,406.857 434.3198,409.4481 436.4397,411.5681 439.0308,411.5681 441.6219,411.5681 443.7419,409.4481 443.7419,406.857 443.7419,404.2659 441.6219,402.1459 439.0308,402.1459 Z" style="fill:#0;fill-opacity:1;stroke:#0;stroke-width:1;stroke-opacity:1;stroke-linecap:butt;stroke-miterlimit:4;stroke-dashoffset:0;"/>
<path id="path9" d=" M 481.3632,487.0051 Q 486.1649,459.1779 507.5729,435.9552 L 515.3758,446.9659 Q 496.7689,460.3791 493.7678,491.6096 L 481.3632,487.0051 Z" style="fill:#0;fill-opacity:1;stroke:#0;stroke-width:2;stroke-opacity:1;stroke-linecap:butt;stroke-miterlimit:4;stroke-dashoffset:0;"/>
</svg>
